<svg xmlns="http://www.w3.org/2000/svg" width="364" height="364" viewBox="0 0 364 364">
  <g id="Group_63" data-name="Group 63" transform="translate(-547.451 -643.451)">
    <circle id="Ellipse_10" data-name="Ellipse 10" cx="182" cy="182" r="182" transform="translate(547.451 643.451)" fill="#1a73e8"/>
    <g id="Group_59" data-name="Group 59" transform="translate(626.254 750.19)">
      <path id="Path_303" data-name="Path 303" d="M146.158,55.684a73.654,73.654,0,0,0-7.591-18.555c-.322-.546-.643-1.091-.965-1.627a74.723,74.723,0,0,0-7.669-10.359,71.659,71.659,0,0,0-5.925-5.993A74.051,74.051,0,0,0,112.995,10.9c-.536-.331-1.082-.663-1.627-.975A74.361,74.361,0,0,0,83.526.575,74.688,74.688,0,0,0,74.248,0h-.019a74.531,74.531,0,0,0-9.268.575A74.222,74.222,0,0,0,14.842,29.7,73.76,73.76,0,0,0,.575,64.971,74.68,74.68,0,0,0,2.339,92.813,74.185,74.185,0,0,0,74.19,148.5h.127a74,74,0,0,0,27.774-5.409V98.806a37.114,37.114,0,0,1-60-5.993,36.734,36.734,0,0,1-3.8-9.277,37.423,37.423,0,0,1,0-18.564,36.8,36.8,0,0,1,3.8-9.287,37.117,37.117,0,0,1,60-5.984,35.688,35.688,0,0,1,3.333,4.4c.341.516.663,1.052.984,1.588a37.073,37.073,0,0,1,4.96,18.564v37.139a36.956,36.956,0,0,0,7.426,22.268,37.455,37.455,0,0,0,5.828,6.149,36.919,36.919,0,0,0,23.768,8.693h.107V74.248a74.687,74.687,0,0,0-.575-9.277,72.685,72.685,0,0,0-1.764-9.287" fill="#fff"/>
      <path id="Path_305" data-name="Path 305" d="M172.185,57.145v54.977h.01c-.01.234-.01.478-.01.711v.01a37.126,37.126,0,0,0,37.012,37.11h.107V57.145Z" transform="translate(-4.388 -1.456)" fill="#fff"/>
      <path id="Path_306" data-name="Path 306" d="M44.771,61.216A22.386,22.386,0,1,0,22.384,83.6h0A22.385,22.385,0,0,0,44.771,61.216" transform="translate(163.971 -38.829)" fill="#fff"/>
    </g>
  </g>
</svg>
