<svg xmlns="http://www.w3.org/2000/svg" width="204.158" height="204.158" viewBox="0 0 204.158 204.158">
  <g id="Group_709" data-name="Group 709" transform="translate(9635.197 -2547)">
    <path id="Path_12127" data-name="Path 12127" d="M102.079,0A102.079,102.079,0,1,1,0,102.079,102.079,102.079,0,0,1,102.079,0" transform="translate(-9635.197 2547)" fill="#0089ff"/>
    <path id="Path_12128" data-name="Path 12128" d="M139.107,38.712v-.156a21.385,21.385,0,0,0-10.77-17.91l-.295-.184a18.4,18.4,0,0,0-23.966,5.722,6.765,6.765,0,0,0-.98,1.329L47.863,125.461a8.9,8.9,0,0,1-3,3.231,7.836,7.836,0,0,1-8.747-.18,8.064,8.064,0,0,1-3.411-6.531v-2.168h.082V91.162a6.878,6.878,0,0,0-13.753,0V122a21.783,21.783,0,0,0,9.2,17.671,21.24,21.24,0,0,0,12.281,3.9h.056a21.982,21.982,0,0,0,11.511-3.272A22.567,22.567,0,0,0,59.8,132.15l54.612-96.86a7.048,7.048,0,0,0,.7-1.026,4.671,4.671,0,0,1,6.316-1.834,7.949,7.949,0,0,1,4,6.6V121.9a8.012,8.012,0,0,1-16.023.007V79.225a6.834,6.834,0,0,0-13.66-.488q-.01.244,0,.488v42.632A21.694,21.694,0,0,0,117.177,143.8h.256a21.71,21.71,0,0,0,21.682-21.42V38.712Z" transform="translate(-9612.958 2568.277)" fill="#fff"/>
    <path id="Path_12129" data-name="Path 12129" d="M54.222,42.921A20.674,20.674,0,1,0,33.547,63.6,20.674,20.674,0,0,0,54.222,42.921" transform="translate(-9620.158 2572.99)" fill="#fff"/>
  </g>
</svg>
